<svg width="2684" height="703" viewBox="0 0 2684 703" fill="none" xmlns="http://www.w3.org/2000/svg">
<g filter="url(#filter0_d_18_44)">
<path d="M143 66H225V103L143 100.5V66Z" fill="#5BED7E"/>
<path d="M143 170H108V135H143H192.5V170H143Z" fill="#5BED7E"/>
<path d="M151 211H221V246.5H151V211Z" fill="#5BED7E"/>
<path d="M143 320.5H108V273.5H143H225V320.5H143Z" fill="#5BED7E"/>
<path d="M225 355V388H169V351H225V355Z" fill="#5BED7E"/>
<path d="M243 388H275.5V426H243V388Z" fill="#5BED7E"/>
<path d="M449.5 66V320.5H662V441.5H307V426V388H291V355H259.5V314H328V279.5H255.5V246.5H328V211H307V175.5H225V141.5H295V103H257V66H449.5Z" fill="#5BED7E"/>
<path d="M143 66H225V103L143 100.5V66Z" stroke="black" stroke-width="6"/>
<path d="M143 170H108V135H143H192.5V170H143Z" stroke="black" stroke-width="6"/>
<path d="M151 211H221V246.5H151V211Z" stroke="black" stroke-width="6"/>
<path d="M143 320.5H108V273.5H143H225V320.5H143Z" stroke="black" stroke-width="6"/>
<path d="M225 355V388H169V351H225V355Z" stroke="black" stroke-width="6"/>
<path d="M243 388H275.5V426H243V388Z" stroke="black" stroke-width="6"/>
<path d="M449.5 66V320.5H662V441.5H307V426V388H291V355H259.5V314H328V279.5H255.5V246.5H328V211H307V175.5H225V141.5H295V103H257V66H449.5Z" stroke="black" stroke-width="6"/>
</g>
<path d="M2332 266H2532V66H2332V266Z" fill="black"/>
<g filter="url(#filter1_d_18_44)">
<path d="M2275.91 276.348C2326.47 357.43 2434.57 381.838 2514.16 329.244C2591.8 277.933 2613.63 175.004 2564.61 95.7169C2515.66 16.5594 2414.5 -9.54887 2334.21 37.1945C2251.36 85.4358 2225.1 194.844 2275.91 276.348Z" stroke="#3CDBBF" stroke-width="24" shape-rendering="crispEdges"/>
</g>
<path d="M2393.69 75.0923C2362.94 81.7752 2344.26 95.6941 2329.08 123.261C2311.36 155.409 2311.36 185.101 2329.08 217.249" stroke="#FEFEFE" stroke-width="9"/>
<g filter="url(#filter2_d_18_44)">
<path d="M2503.77 365.311L2534.5 414.905L2526.82 420.494L2616.93 572.072L2677 535.05L2584.1 384.869L2573.62 391.156L2542.88 342.958L2503.77 365.311Z" fill="#3CDBBF"/>
<path d="M2503.77 365.311L2534.5 414.905L2526.82 420.494L2616.93 572.072L2677 535.05L2584.1 384.869L2573.62 391.156L2542.88 342.958L2503.77 365.311Z" stroke="black"/>
</g>
<g filter="url(#filter3_d_18_44)">
<path fill-rule="evenodd" clip-rule="evenodd" d="M695 66H1051V417.5H906.5V310.5H833V417.5H695V170.5V66ZM833 204V170.5H906.5V204H833Z" fill="#5BED7E"/>
<path d="M1092.5 66V417.5H1442V204H1262V279.5H1295.5V310.5H1228.5V170.5H1654.5V66H1092.5Z" fill="#5BED7E"/>
<path d="M1687 66V204H1479.5V417.5H1622V310.5H1687V417.5H1831.5V66H1687Z" fill="#5BED7E"/>
<path d="M2216.5 66V417.5H1867V66H2005V310.5H2086.5V66H2216.5Z" fill="#5BED7E"/>
<path fill-rule="evenodd" clip-rule="evenodd" d="M695 66H1051V417.5H906.5V310.5H833V417.5H695V170.5V66ZM833 204V170.5H906.5V204H833Z" stroke="black"/>
<path d="M1092.5 66V417.5H1442V204H1262V279.5H1295.5V310.5H1228.5V170.5H1654.5V66H1092.5Z" stroke="black"/>
<path d="M1687 66V204H1479.5V417.5H1622V310.5H1687V417.5H1831.5V66H1687Z" stroke="black"/>
<path d="M2216.5 66V417.5H1867V66H2005V310.5H2086.5V66H2216.5Z" stroke="black"/>
</g>
<path d="M2090 18.5L2363.72 36L2421.5 342.5L2169 566.5L1431 702.5L1337 189L2090 18.5Z" fill="url(#paint0_linear_18_44)" fill-opacity="0.4"/>
<g filter="url(#filter4_d_18_44)">
<path d="M129.224 612L95.3944 493H132.114L146.054 546.72C146.961 550.233 147.698 553.633 148.264 556.92C148.944 560.093 149.454 563.04 149.794 565.76C150.134 568.48 150.361 570.973 150.474 573.24C150.701 575.507 150.814 577.433 150.814 579.02H148.094C148.094 576.187 148.151 573.183 148.264 570.01C148.491 566.723 148.944 563.21 149.624 559.47C150.304 555.617 151.438 551.367 153.024 546.72L167.814 504.73H195.864L210.654 546.72C212.241 551.253 213.488 555.447 214.394 559.3C215.301 563.04 215.924 566.553 216.264 569.84C216.718 573.013 216.944 576.073 216.944 579.02H214.394C214.394 577.66 214.394 576.13 214.394 574.43C214.394 572.73 214.394 570.86 214.394 568.82C214.508 566.78 214.678 564.627 214.904 562.36C215.131 559.98 215.471 557.487 215.924 554.88C216.378 552.273 216.944 549.553 217.624 546.72L231.564 493H267.094L232.924 612H204.024L178.184 547.91H182.774L159.824 612H129.224ZM260.328 612L308.098 493H336.998L384.428 612H348.048L329.008 559.98C327.761 556.467 326.684 553.463 325.778 550.97C324.871 548.477 324.078 546.153 323.398 544C322.718 541.733 322.038 539.353 321.358 536.86C320.678 534.253 319.998 531.193 319.318 527.68H325.098C324.418 531.193 323.738 534.253 323.058 536.86C322.378 539.353 321.641 541.733 320.848 544C320.168 546.153 319.318 548.477 318.298 550.97C317.391 553.463 316.314 556.467 315.068 559.98L296.028 612H260.328ZM284.128 594.32L294.838 569.33H350.088L359.778 594.32H284.128ZM419.554 612V524.28H382.834V493H494.014V524.28H456.274V612H419.554ZM571.125 613.7C561.605 613.7 552.821 612.17 544.775 609.11C536.841 606.05 529.928 601.8 524.035 596.36C518.255 590.807 513.778 584.233 510.605 576.64C507.431 569.047 505.845 560.717 505.845 551.65C505.845 542.583 507.431 534.253 510.605 526.66C513.891 519.067 518.481 512.55 524.375 507.11C530.268 501.557 537.238 497.25 545.285 494.19C553.445 491.13 562.398 489.6 572.145 489.6C577.698 489.6 583.138 490.28 588.465 491.64C593.905 492.887 599.005 494.87 603.765 497.59C608.638 500.197 613.058 503.54 617.025 507.62L595.095 533.29C593.508 531.363 591.581 529.607 589.315 528.02C587.161 526.433 584.611 525.187 581.665 524.28C578.831 523.26 575.545 522.75 571.805 522.75C567.951 522.75 564.268 523.43 560.755 524.79C557.355 526.037 554.351 527.907 551.745 530.4C549.251 532.893 547.268 535.953 545.795 539.58C544.321 543.207 543.585 547.4 543.585 552.16C543.585 556.467 544.321 560.377 545.795 563.89C547.268 567.403 549.365 570.407 552.085 572.9C554.805 575.393 558.091 577.32 561.945 578.68C565.798 580.04 570.105 580.72 574.865 580.72C578.265 580.72 581.495 580.21 584.555 579.19C587.615 578.17 590.391 576.867 592.885 575.28C595.378 573.58 597.531 571.71 599.345 569.67L616.855 597.21C613.908 600.383 609.998 603.217 605.125 605.71C600.251 608.203 594.868 610.187 588.975 611.66C583.081 613.02 577.131 613.7 571.125 613.7ZM708.498 612V493H745.218V612H708.498ZM637.608 612V493H674.328V612H637.608ZM651.378 568.65L651.548 536.69H729.238V568.65H651.378ZM777.513 612V493H866.423V522.75H812.703V582.25H869.483V612H777.513ZM795.023 565.76V537.88H860.133V565.76H795.023ZM937.817 613.7C928.864 613.7 920.931 612.737 914.017 610.81C907.217 608.77 901.211 605.937 895.997 602.31C890.897 598.683 886.307 594.433 882.227 589.56L903.477 565.76C909.144 573.013 915.037 577.83 921.157 580.21C927.391 582.477 933.227 583.61 938.667 583.61C940.821 583.61 942.747 583.44 944.447 583.1C946.147 582.647 947.451 581.967 948.357 581.06C949.264 580.153 949.717 578.907 949.717 577.32C949.717 575.847 949.207 574.6 948.187 573.58C947.281 572.56 946.034 571.71 944.447 571.03C942.861 570.237 941.104 569.613 939.177 569.16C937.364 568.593 935.551 568.14 933.737 567.8C932.037 567.46 930.507 567.12 929.147 566.78C922.347 565.193 916.397 563.267 911.297 561C906.197 558.733 901.947 556.013 898.547 552.84C895.147 549.667 892.597 546.04 890.897 541.96C889.311 537.88 888.517 533.29 888.517 528.19C888.517 522.41 889.821 517.14 892.427 512.38C895.147 507.62 898.717 503.54 903.137 500.14C907.671 496.74 912.771 494.133 918.437 492.32C924.217 490.507 930.167 489.6 936.287 489.6C945.241 489.6 952.721 490.45 958.727 492.15C964.734 493.737 969.777 496.06 973.857 499.12C977.937 502.18 981.451 505.75 984.397 509.83L962.977 530.4C960.484 528.02 957.877 526.093 955.157 524.62C952.437 523.033 949.604 521.9 946.657 521.22C943.824 520.427 940.991 520.03 938.157 520.03C935.551 520.03 933.341 520.257 931.527 520.71C929.714 521.05 928.297 521.673 927.277 522.58C926.257 523.373 925.747 524.507 925.747 525.98C925.747 527.453 926.371 528.7 927.617 529.72C928.977 530.627 930.621 531.42 932.547 532.1C934.587 532.78 936.571 533.347 938.497 533.8C940.537 534.14 942.237 534.423 943.597 534.65C949.831 535.783 955.554 537.37 960.767 539.41C965.981 541.337 970.514 543.83 974.367 546.89C978.334 549.837 981.337 553.577 983.377 558.11C985.531 562.53 986.607 567.8 986.607 573.92C986.607 582.647 984.397 589.957 979.977 595.85C975.671 601.743 969.834 606.22 962.467 609.28C955.101 612.227 946.884 613.7 937.817 613.7ZM1074.71 612V493H1163.62V522.75H1109.9V582.25H1166.68V612H1074.71ZM1092.22 565.76V537.88H1157.33V565.76H1092.22ZM1225.49 612L1178.06 493H1214.78L1233.82 545.02C1235.18 548.533 1236.26 551.537 1237.05 554.03C1237.96 556.523 1238.75 558.903 1239.43 561.17C1240.11 563.323 1240.74 565.647 1241.3 568.14C1241.98 570.633 1242.72 573.693 1243.51 577.32H1237.56C1238.7 572.56 1239.66 568.65 1240.45 565.59C1241.36 562.53 1242.32 559.527 1243.34 556.58C1244.48 553.52 1245.89 549.667 1247.59 545.02L1266.63 493H1302.16L1254.39 612H1225.49ZM1319.16 612V493H1408.07V522.75H1354.35V582.25H1411.13V612H1319.16ZM1336.67 565.76V537.88H1401.78V565.76H1336.67ZM1437.81 612V493H1493.57C1501.84 493 1509.21 494.643 1515.67 497.93C1522.13 501.217 1527.17 505.693 1530.8 511.36C1534.43 517.027 1536.24 523.543 1536.24 530.91C1536.24 539.183 1534.43 546.437 1530.8 552.67C1527.17 558.903 1522.13 563.777 1515.67 567.29C1509.21 570.69 1501.84 572.39 1493.57 572.39H1472.15V612H1437.81ZM1500.2 612L1469.94 558.28L1507.51 554.03L1541.17 612H1500.2ZM1472.15 546.89H1487.79C1490.62 546.89 1492.95 546.38 1494.76 545.36C1496.69 544.227 1498.1 542.697 1499.01 540.77C1500.03 538.843 1500.54 536.52 1500.54 533.8C1500.54 531.307 1500.03 529.21 1499.01 527.51C1498.1 525.697 1496.63 524.337 1494.59 523.43C1492.66 522.41 1490.17 521.9 1487.11 521.9H1472.15V546.89ZM1584.56 612V552.67L1585.75 561L1537.64 493H1578.44L1615.16 545.7L1592.21 545.19L1625.36 493H1665.14L1619.07 562.87L1621.62 551.31V612H1584.56ZM1710.31 612V524.28H1673.59V493H1784.77V524.28H1747.03V612H1710.31ZM1879.44 612V493H1916.16V612H1879.44ZM1808.55 612V493H1845.27V612H1808.55ZM1822.32 568.65L1822.49 536.69H1900.18V568.65H1822.32ZM1947.6 612V582.25H1968.51V522.75H1947.6V493H2026.14V522.75H2005.23V582.25H2026.14V612H1947.6ZM2057.65 612V493H2090.46L2145.2 568.65L2137.38 566.27C2136.81 561.737 2136.3 557.77 2135.85 554.37C2135.51 550.97 2135.17 547.853 2134.83 545.02C2134.6 542.073 2134.37 539.183 2134.15 536.35C2134.03 533.517 2133.98 530.4 2133.98 527C2133.98 523.6 2133.98 519.633 2133.98 515.1V493H2169.34V612H2136.19L2075.84 528.7L2089.61 532.78C2090.17 536.973 2090.63 540.657 2090.97 543.83C2091.42 546.89 2091.76 549.723 2091.99 552.33C2092.21 554.937 2092.38 557.543 2092.5 560.15C2092.72 562.643 2092.84 565.477 2092.84 568.65C2092.95 571.71 2093.01 575.337 2093.01 579.53V612H2057.65ZM2258.48 613.7C2248.28 613.7 2239.21 612.17 2231.28 609.11C2223.46 606.05 2216.83 601.743 2211.39 596.19C2205.95 590.637 2201.81 584.063 2198.98 576.47C2196.26 568.877 2194.9 560.603 2194.9 551.65C2194.9 542.583 2196.43 534.31 2199.49 526.83C2202.66 519.237 2207.2 512.663 2213.09 507.11C2218.98 501.557 2225.95 497.25 2234 494.19C2242.16 491.13 2251.23 489.6 2261.2 489.6C2268.11 489.6 2274.52 490.45 2280.41 492.15C2286.42 493.85 2291.8 496.173 2296.56 499.12C2301.43 501.953 2305.63 505.183 2309.14 508.81L2287.38 531.93C2285.11 529.777 2282.68 527.907 2280.07 526.32C2277.46 524.62 2274.57 523.317 2271.4 522.41C2268.23 521.39 2264.66 520.88 2260.69 520.88C2256.61 520.88 2252.87 521.673 2249.47 523.26C2246.07 524.733 2243.12 526.83 2240.63 529.55C2238.14 532.27 2236.15 535.557 2234.68 539.41C2233.32 543.15 2232.64 547.23 2232.64 551.65C2232.64 556.07 2233.38 560.207 2234.85 564.06C2236.32 567.8 2238.36 571.03 2240.97 573.75C2243.58 576.47 2246.69 578.623 2250.32 580.21C2253.95 581.683 2257.91 582.42 2262.22 582.42C2265.17 582.42 2267.83 581.967 2270.21 581.06C2272.7 580.04 2274.8 578.737 2276.5 577.15C2278.31 575.45 2279.73 573.467 2280.75 571.2C2281.77 568.82 2282.28 566.27 2282.28 563.55V558.62L2287.04 566.78H2256.78V540.94H2315.26C2315.37 542.187 2315.49 544.227 2315.6 547.06C2315.83 549.893 2315.94 552.727 2315.94 555.56C2316.05 558.28 2316.11 560.15 2316.11 561.17C2316.11 568.763 2314.69 575.79 2311.86 582.25C2309.03 588.71 2305 594.263 2299.79 598.91C2294.69 603.557 2288.63 607.183 2281.6 609.79C2274.57 612.397 2266.87 613.7 2258.48 613.7Z" fill="#59E77B"/>
</g>
<defs>
<filter id="filter0_d_18_44" x="105" y="54" width="573" height="390.5" filterUnits="userSpaceOnUse" color-interpolation-filters="sRGB">
<feFlood flood-opacity="0" result="BackgroundImageFix"/>
<feColorMatrix in="SourceAlpha" type="matrix" values="0 0 0 0 0 0 0 0 0 0 0 0 0 0 0 0 0 0 127 0" result="hardAlpha"/>
<feOffset dx="9" dy="-5"/>
<feGaussianBlur stdDeviation="2"/>
<feComposite in2="hardAlpha" operator="out"/>
<feColorMatrix type="matrix" values="0 0 0 0 0 0 0 0 0 0 0 0 0 0 0 0 0 0 1 0"/>
<feBlend mode="normal" in2="BackgroundImageFix" result="effect1_dropShadow_18_44"/>
<feBlend mode="normal" in="SourceGraphic" in2="effect1_dropShadow_18_44" result="shape"/>
</filter>
<filter id="filter1_d_18_44" x="2238" y="-0.00537109" width="381.703" height="369.066" filterUnits="userSpaceOnUse" color-interpolation-filters="sRGB">
<feFlood flood-opacity="0" result="BackgroundImageFix"/>
<feColorMatrix in="SourceAlpha" type="matrix" values="0 0 0 0 0 0 0 0 0 0 0 0 0 0 0 0 0 0 127 0" result="hardAlpha"/>
<feOffset dx="16" dy="-1"/>
<feGaussianBlur stdDeviation="0.5"/>
<feComposite in2="hardAlpha" operator="out"/>
<feColorMatrix type="matrix" values="0 0 0 0 0 0 0 0 0 0 0 0 0 0 0 0 0 0 1 0"/>
<feBlend mode="normal" in2="BackgroundImageFix" result="effect1_dropShadow_18_44"/>
<feBlend mode="normal" in="SourceGraphic" in2="effect1_dropShadow_18_44" result="shape"/>
</filter>
<filter id="filter2_d_18_44" x="2503.77" y="339.958" width="180.233" height="232.114" filterUnits="userSpaceOnUse" color-interpolation-filters="sRGB">
<feFlood flood-opacity="0" result="BackgroundImageFix"/>
<feColorMatrix in="SourceAlpha" type="matrix" values="0 0 0 0 0 0 0 0 0 0 0 0 0 0 0 0 0 0 127 0" result="hardAlpha"/>
<feOffset dx="6" dy="-2"/>
<feGaussianBlur stdDeviation="0.5"/>
<feComposite in2="hardAlpha" operator="out"/>
<feColorMatrix type="matrix" values="0 0 0 0 0 0 0 0 0 0 0 0 0 0 0 0 0 0 1 0"/>
<feBlend mode="normal" in2="BackgroundImageFix" result="effect1_dropShadow_18_44"/>
<feBlend mode="normal" in="SourceGraphic" in2="effect1_dropShadow_18_44" result="shape"/>
</filter>
<filter id="filter3_d_18_44" x="694.5" y="54.5" width="1543.5" height="363.5" filterUnits="userSpaceOnUse" color-interpolation-filters="sRGB">
<feFlood flood-opacity="0" result="BackgroundImageFix"/>
<feColorMatrix in="SourceAlpha" type="matrix" values="0 0 0 0 0 0 0 0 0 0 0 0 0 0 0 0 0 0 127 0" result="hardAlpha"/>
<feOffset dx="20" dy="-10"/>
<feGaussianBlur stdDeviation="0.5"/>
<feComposite in2="hardAlpha" operator="out"/>
<feColorMatrix type="matrix" values="0 0 0 0 0 0 0 0 0 0 0 0 0 0 0 0 0 0 1 0"/>
<feBlend mode="normal" in2="BackgroundImageFix" result="effect1_dropShadow_18_44"/>
<feBlend mode="normal" in="SourceGraphic" in2="effect1_dropShadow_18_44" result="shape"/>
</filter>
<filter id="filter4_d_18_44" x="95.3944" y="473.6" width="2233.72" height="140.1" filterUnits="userSpaceOnUse" color-interpolation-filters="sRGB">
<feFlood flood-opacity="0" result="BackgroundImageFix"/>
<feColorMatrix in="SourceAlpha" type="matrix" values="0 0 0 0 0 0 0 0 0 0 0 0 0 0 0 0 0 0 127 0" result="hardAlpha"/>
<feOffset dx="12" dy="-15"/>
<feGaussianBlur stdDeviation="0.5"/>
<feComposite in2="hardAlpha" operator="out"/>
<feColorMatrix type="matrix" values="0 0 0 0 0 0 0 0 0 0 0 0 0 0 0 0 0 0 1 0"/>
<feBlend mode="normal" in2="BackgroundImageFix" result="effect1_dropShadow_18_44"/>
<feBlend mode="normal" in="SourceGraphic" in2="effect1_dropShadow_18_44" result="shape"/>
</filter>
<linearGradient id="paint0_linear_18_44" x1="2233.5" y1="236" x2="1776" y2="903.5" gradientUnits="userSpaceOnUse">
<stop stop-color="white"/>
<stop offset="1" stop-color="#737373" stop-opacity="0"/>
</linearGradient>
</defs>
</svg>
